<svg width="151" height="58" viewBox="0 0 151 58" fill="none" xmlns="http://www.w3.org/2000/svg">
<path d="M56.3672 34.2422C56.9141 34.2422 57.2578 34.4531 57.3984 34.875C57.5391 35.2969 57.6094 35.9922 57.6094 36.9609C57.6094 37.9297 57.7422 38.8359 58.0078 39.6797C58.2734 40.5234 58.6406 41.2344 59.1094 41.8125C60.0625 42.9688 61.3828 43.5469 63.0703 43.5469C64.7578 43.5469 66.1016 42.9297 67.1016 41.6953C68.1016 40.4453 68.6016 38.6562 68.6016 36.3281C68.6016 33.2188 67.2812 30.4531 64.6406 28.0312C63.8906 27.3438 63.1172 26.6641 62.3203 25.9922C61.5391 25.3203 60.7734 24.625 60.0234 23.9062C59.2734 23.1875 58.6016 22.3906 58.0078 21.5156C56.7109 19.5938 56.0625 17.4062 56.0625 14.9531C56.0625 12.4375 56.8047 10.4062 58.2891 8.85938C59.7578 7.32813 61.6016 6.5625 63.8203 6.5625C65.7266 6.5625 67.2891 7.20312 68.5078 8.48438C69.8672 9.95313 70.4922 11.9844 70.3828 14.5781C70.3672 14.7031 70.3594 14.8359 70.3594 14.9766C70.375 15.1172 70.3594 15.3828 70.3125 15.7734C70.2812 16.1641 70.1172 16.5156 69.8203 16.8281C69.5391 17.125 69.2266 17.2734 68.8828 17.2734C68.5547 17.2734 68.2734 17.125 68.0391 16.8281C67.8047 16.5156 67.7266 16.1094 67.8047 15.6094C68.0078 14.4687 68.1094 13.6094 68.1094 13.0312C68.1094 12.4375 68 11.875 67.7812 11.3438C67.5781 10.8125 67.2812 10.3437 66.8906 9.9375C66.0469 9.07812 64.9531 8.64844 63.6094 8.64844C62.125 8.64844 60.9141 9.15625 59.9766 10.1719C58.9453 11.2969 58.4297 12.6797 58.4297 14.3203C58.4297 15.9609 58.6094 17.2891 58.9688 18.3047C59.3281 19.3047 59.7969 20.2109 60.375 21.0234C60.9688 21.8359 61.6406 22.5781 62.3906 23.25C63.1406 23.9219 63.8984 24.5859 64.6641 25.2422C65.4453 25.8984 66.2109 26.5781 66.9609 27.2812C67.7109 27.9688 68.3828 28.7344 68.9766 29.5781C70.2734 31.4844 70.9219 33.6797 70.9219 36.1641C70.9219 39.0703 70.1719 41.3906 68.6719 43.125C67.1875 44.8438 65.2031 45.7031 62.7188 45.7031C60.4062 45.7031 58.5234 44.8125 57.0703 43.0312C55.6953 41.3594 55.0078 39.4766 55.0078 37.3828C55.0078 35.2891 55.4609 34.2422 56.3672 34.2422ZM81.0469 7.10156C81.4844 7.10156 84.2969 7.03906 89.4844 6.91406C90.2031 6.91406 90.6953 7.1875 90.9609 7.73438C91.0234 7.89063 91.0547 8.07031 91.0547 8.27344C91.0547 8.47656 90.9375 8.6875 90.7031 8.90625C90.4688 9.10938 90.0312 9.20313 89.3906 9.1875C88.75 9.17187 88.125 9.14844 87.5156 9.11719C86.9219 9.08594 86.3672 9.0625 85.8516 9.04688C84.9297 9.01563 84.1406 9.00781 83.4844 9.02344C83.3594 12.6172 83.2969 16.5156 83.2969 20.7188C83.2969 25.2188 83.2969 28.3047 83.2969 29.9766C83.3125 31.6328 83.3359 33.2188 83.3672 34.7344C83.4141 38.6094 83.4609 41.4844 83.5078 43.3594C83.5234 43.8906 83.3984 44.2891 83.1328 44.5547C82.8828 44.8047 82.6016 44.9297 82.2891 44.9297C81.9922 44.9297 81.6953 44.8125 81.3984 44.5781C81.1172 44.3281 80.9766 43.9609 80.9766 43.4766L80.9531 40.4062L81.1875 18.0234C81.1875 13.8516 81.1328 10.8516 81.0234 9.02344C80.1953 9.00781 79.2109 9.03906 78.0703 9.11719C76.7266 9.21094 75.75 9.28125 75.1406 9.32812C74.5469 9.35937 74.125 9.25781 73.875 9.02344C73.625 8.78906 73.5 8.52344 73.5 8.22656C73.5 7.91406 73.625 7.60938 73.875 7.3125C74.125 7.01562 74.5234 6.88281 75.0703 6.91406C75.6328 6.92969 76.1172 6.94531 76.5234 6.96094C76.9297 6.97656 77.2812 6.99219 77.5781 7.00781C77.8906 7.02344 78.1641 7.03906 78.3984 7.05469C78.6328 7.07031 78.8672 7.08594 79.1016 7.10156C79.3516 7.10156 79.6328 7.10156 79.9453 7.10156H81.0469ZM101.836 7.00781C102.211 7.00781 102.555 7.16406 102.867 7.47656C103.18 7.78906 103.422 8.44531 103.594 9.44531C103.781 10.4297 104.055 11.8437 104.414 13.6875C104.789 15.5313 105.203 17.5 105.656 19.5938C106.109 21.6875 106.586 23.8516 107.086 26.0859C107.586 28.3047 108.086 30.4609 108.586 32.5547C109.789 37.4609 110.727 41.0469 111.398 43.3125C111.555 43.8906 111.508 44.3516 111.258 44.6953C111.023 45.0391 110.758 45.2109 110.461 45.2109C110.164 45.2109 109.891 45.125 109.641 44.9531C109.406 44.7812 109.195 44.2734 109.008 43.4297C108.82 42.5859 108.516 41.2188 108.094 39.3281C107.672 37.4375 107.219 35.4062 106.734 33.2344C106.719 33.1406 106.703 33.0547 106.688 32.9766C105.625 32.9297 104.125 32.9062 102.188 32.9062C99.9062 32.9062 98.1641 32.9375 96.9609 33C96.9453 33.0938 96.9297 33.1875 96.9141 33.2812C95.9609 37.875 95.2578 41.4297 94.8047 43.9453C94.6484 44.7422 94.2344 45.1406 93.5625 45.1406C92.8594 45.1406 92.4297 44.7969 92.2734 44.1094C92.2266 43.9062 92.2734 43.5859 92.4141 43.1484C92.5547 42.7109 92.7578 41.9609 93.0234 40.8984C93.3047 39.8203 93.6016 38.5938 93.9141 37.2188C94.2422 35.8281 94.5859 34.3125 94.9453 32.6719C95.3047 31.0312 95.6719 29.3438 96.0469 27.6094C96.4219 25.875 96.7969 24.1328 97.1719 22.3828C97.5469 20.6172 97.9062 18.9141 98.25 17.2734C98.5938 15.6328 98.9141 14.0937 99.2109 12.6562C99.5234 11.2188 99.7734 10.0781 99.9609 9.23438C100.258 7.75 100.883 7.00781 101.836 7.00781ZM97.4062 30.8203C98.5938 30.8828 100.195 30.9141 102.211 30.9141C103.883 30.9141 105.219 30.8906 106.219 30.8438C105.891 29.4219 105.562 27.9609 105.234 26.4609C104.719 24.1328 104.227 21.875 103.758 19.6875C102.977 16.1094 102.305 12.9687 101.742 10.2656C101.383 12.0625 100.867 14.5078 100.195 17.6016C99.3203 21.7266 98.6562 24.8672 98.2031 27.0234C97.9375 28.3203 97.6719 29.5859 97.4062 30.8203ZM120.469 7.10156C120.906 7.10156 123.719 7.03906 128.906 6.91406C129.625 6.91406 130.117 7.1875 130.383 7.73438C130.445 7.89063 130.477 8.07031 130.477 8.27344C130.477 8.47656 130.359 8.6875 130.125 8.90625C129.891 9.10938 129.453 9.20313 128.812 9.1875C128.172 9.17187 127.547 9.14844 126.938 9.11719C126.344 9.08594 125.789 9.0625 125.273 9.04688C124.352 9.01563 123.562 9.00781 122.906 9.02344C122.781 12.6172 122.719 16.5156 122.719 20.7188C122.719 25.2188 122.719 28.3047 122.719 29.9766C122.734 31.6328 122.758 33.2188 122.789 34.7344C122.836 38.6094 122.883 41.4844 122.93 43.3594C122.945 43.8906 122.82 44.2891 122.555 44.5547C122.305 44.8047 122.023 44.9297 121.711 44.9297C121.414 44.9297 121.117 44.8125 120.82 44.5781C120.539 44.3281 120.398 43.9609 120.398 43.4766L120.375 40.4062L120.609 18.0234C120.609 13.8516 120.555 10.8516 120.445 9.02344C119.617 9.00781 118.633 9.03906 117.492 9.11719C116.148 9.21094 115.172 9.28125 114.562 9.32812C113.969 9.35937 113.547 9.25781 113.297 9.02344C113.047 8.78906 112.922 8.52344 112.922 8.22656C112.922 7.91406 113.047 7.60938 113.297 7.3125C113.547 7.01562 113.945 6.88281 114.492 6.91406C115.055 6.92969 115.539 6.94531 115.945 6.96094C116.352 6.97656 116.703 6.99219 117 7.00781C117.312 7.02344 117.586 7.03906 117.82 7.05469C118.055 7.07031 118.289 7.08594 118.523 7.10156C118.773 7.10156 119.055 7.10156 119.367 7.10156H120.469ZM133.664 34.2422C134.211 34.2422 134.555 34.4531 134.695 34.875C134.836 35.2969 134.906 35.9922 134.906 36.9609C134.906 37.9297 135.039 38.8359 135.305 39.6797C135.57 40.5234 135.938 41.2344 136.406 41.8125C137.359 42.9688 138.68 43.5469 140.367 43.5469C142.055 43.5469 143.398 42.9297 144.398 41.6953C145.398 40.4453 145.898 38.6562 145.898 36.3281C145.898 33.2188 144.578 30.4531 141.938 28.0312C141.188 27.3438 140.414 26.6641 139.617 25.9922C138.836 25.3203 138.07 24.625 137.32 23.9062C136.57 23.1875 135.898 22.3906 135.305 21.5156C134.008 19.5938 133.359 17.4062 133.359 14.9531C133.359 12.4375 134.102 10.4062 135.586 8.85938C137.055 7.32813 138.898 6.5625 141.117 6.5625C143.023 6.5625 144.586 7.20312 145.805 8.48438C147.164 9.95313 147.789 11.9844 147.68 14.5781C147.664 14.7031 147.656 14.8359 147.656 14.9766C147.672 15.1172 147.656 15.3828 147.609 15.7734C147.578 16.1641 147.414 16.5156 147.117 16.8281C146.836 17.125 146.523 17.2734 146.18 17.2734C145.852 17.2734 145.57 17.125 145.336 16.8281C145.102 16.5156 145.023 16.1094 145.102 15.6094C145.305 14.4687 145.406 13.6094 145.406 13.0312C145.406 12.4375 145.297 11.875 145.078 11.3438C144.875 10.8125 144.578 10.3437 144.188 9.9375C143.344 9.07812 142.25 8.64844 140.906 8.64844C139.422 8.64844 138.211 9.15625 137.273 10.1719C136.242 11.2969 135.727 12.6797 135.727 14.3203C135.727 15.9609 135.906 17.2891 136.266 18.3047C136.625 19.3047 137.094 20.2109 137.672 21.0234C138.266 21.8359 138.938 22.5781 139.688 23.25C140.438 23.9219 141.195 24.5859 141.961 25.2422C142.742 25.8984 143.508 26.5781 144.258 27.2812C145.008 27.9688 145.68 28.7344 146.273 29.5781C147.57 31.4844 148.219 33.6797 148.219 36.1641C148.219 39.0703 147.469 41.3906 145.969 43.125C144.484 44.8438 142.5 45.7031 140.016 45.7031C137.703 45.7031 135.82 44.8125 134.367 43.0312C132.992 41.3594 132.305 39.4766 132.305 37.3828C132.305 35.2891 132.758 34.2422 133.664 34.2422Z" fill="white"/>
<circle cx="39.3" cy="28.6201" r="1" stroke="white" stroke-width="1.12"/>
<path d="M37.5 24L39 28" stroke="white" stroke-width="2"/>
<circle cx="36.96" cy="23.1601" r="1" stroke="white" stroke-width="1.12"/>
<path d="M29.5 42.5L36.5 24" stroke="white" stroke-width="2"/>
<circle cx="29.16" cy="43.4399" r="1" stroke="white" stroke-width="1.12"/>
<path d="M24 8.5L29 42.5" stroke="white" stroke-width="2"/>
<circle cx="23.7" cy="7.56" r="1" stroke="white" stroke-width="1.12"/>
<path d="M17 24.5L23.5 8.5" stroke="white" stroke-width="2"/>
<circle cx="16.68" cy="25.4999" r="1" stroke="white" stroke-width="1.12"/>
<path d="M14 21.5L16.5 25" stroke="white" stroke-width="2"/>
<circle cx="13.56" cy="20.8203" r="1" stroke="white" stroke-width="1.12"/>
<path d="M7.10156 11.9766C7.08594 12.6328 7.07031 13.3906 7.05469 14.25C7.05469 15.0938 7.05469 18.5156 7.05469 24.5156C7.05469 30.5156 7.14844 36.8281 7.33594 43.4531C7.35156 43.9531 7.20312 44.3359 6.89062 44.6016C6.59375 44.8672 6.27344 45 5.92969 45C5.60156 45 5.30469 44.8828 5.03906 44.6484C4.78906 44.4141 4.67969 43.8906 4.71094 43.0781C4.74219 42.2656 4.77344 41.1406 4.80469 39.7031C4.83594 38.2656 4.86719 36.7344 4.89844 35.1094C4.96094 31.8906 4.99219 28.8906 4.99219 26.1094C4.99219 23.3125 4.98438 21.1406 4.96875 19.5938C4.96875 18.0312 4.95312 16.5938 4.92188 15.2812C4.875 12.375 4.78906 10.0547 4.66406 8.32031C4.61719 7.82031 4.70312 7.45312 4.92188 7.21875C5.15625 6.96875 5.45312 6.84375 5.8125 6.84375C6.17188 6.84375 6.50781 6.96875 6.82031 7.21875C7.13281 7.45312 7.27344 7.85937 7.24219 8.4375C7.22656 9.01563 7.20312 9.58594 7.17188 10.1484C7.15625 10.7109 7.13281 11.3203 7.10156 11.9766Z" fill="white"/>
</svg>
